<?xml version="1.0" encoding="UTF-8"?>
<svg width="752pt" height="752pt" version="1.1" viewBox="0 0 752 752" xmlns="http://www.w3.org/2000/svg">
 <g>
  <path d="m472.2 583.19h-24.273l-24.664-73.996h108.13c9.8086-0.011718 19.215-3.9141 26.148-10.848 6.9375-6.9375 10.84-16.34 10.852-26.148v-221.99c-0.011719-9.8086-3.9141-19.215-10.852-26.148-6.9336-6.9375-16.34-10.84-26.148-10.852h-44.398v14.801h44.398c5.8867 0 11.535 2.3398 15.699 6.5 4.1602 4.1641 6.5 9.8125 6.5 15.699v199.79h-355.18v-199.79c0-5.8867 2.3359-11.535 6.5-15.699 4.1641-4.1602 9.8086-6.5 15.699-6.5h214.59v-14.801h-214.59c-9.8125 0.011719-19.215 3.9141-26.152 10.852-6.9336 6.9336-10.836 16.34-10.848 26.148v221.99c0.011719 9.8086 3.9141 19.211 10.848 26.148 6.9375 6.9336 16.34 10.836 26.152 10.848h108.13l-24.66 73.996h-24.273v14.801h192.39zm-251.59-88.793c-5.8906 0-11.535-2.3398-15.699-6.5039-4.1641-4.1641-6.5-9.8086-6.5-15.695v-7.4023h355.18v7.4023c0 5.8867-2.3398 11.531-6.5 15.695-4.1641 4.1641-9.8125 6.5039-15.699 6.5039zm99.066 88.793 24.664-73.996h63.328l24.664 73.996z"/>
  <path d="m220.61 427.8h310.79v-155.39c0-1.9648-0.77734-3.8438-2.168-5.2344-1.3867-1.3867-3.2695-2.1641-5.2305-2.1641h-44.398c-4.0859 0-7.3984 3.3125-7.3984 7.3984v140.59h-14.801v-111c0-1.9609-0.78125-3.8438-2.168-5.2305-1.3867-1.3906-3.2695-2.168-5.2305-2.168h-44.398c-4.0898 0-7.4023 3.3125-7.4023 7.3984v111h-14.797v-81.398c0-1.9609-0.78125-3.8438-2.168-5.2305-1.3867-1.3867-3.2695-2.168-5.2344-2.168h-44.398c-4.0859 0-7.3984 3.3125-7.3984 7.3984v81.398h-14.801v-22.199c0-1.9609-0.77734-3.8438-2.1641-5.2305-1.3906-1.3906-3.2695-2.168-5.2344-2.168h-44.398c-4.0859 0-7.3984 3.3125-7.3984 7.3984v22.199h-29.598zm266.39-148h29.598v14.801h-29.598zm0 29.598h29.598v14.801h-29.598zm0 29.598h29.598v14.801h-29.598zm0 29.598h29.598v14.801l-29.598 0.003906zm0 29.598h29.598v14.801l-29.598 0.003906zm-73.996-88.793h29.598v14.801h-29.598zm0 29.598h29.598v14.801h-29.598zm0 29.598h29.598v14.801l-29.598 0.003906zm0 29.598h29.598v14.801l-29.598 0.003906zm-73.996-59.191h29.598v14.801l-29.598-0.003907zm0 29.598h29.598v14.801h-29.598zm0 29.598h29.598v14.801h-29.598zm-73.996 0h29.598v14.801h-29.598z"/>
  <path d="m220.61 324.2h14.801v14.801h-14.801z"/>
  <path d="m220.61 353.8h14.801v14.801h-14.801z"/>
  <path d="m220.61 383.4h14.801v14.801h-14.801z"/>
  <path d="m220.61 294.61h14.801v14.801h-14.801z"/>
  <path d="m220.61 265.01h14.801v14.801h-14.801z"/>
  <path d="m502.02 192.81 14.355-3.5977-7.3984-29.598h-0.003906c-0.99219-3.9609-5.0039-6.3711-8.9688-5.3828l-29.598 7.3984 3.582 14.355 11.031-2.7344-60.238 90.352-39.039-13.016-0.003907-0.003907c-2.6562-0.88281-5.5898-0.19141-7.5703 1.793l-41.602 41.602-33.082-6.625c-3.2734-0.65625-6.5781 0.96094-8.0742 3.9453l-29.598 59.199 13.246 6.6172 27.066-54.145 31.457 6.2891c2.418 0.47656 4.9141-0.28125 6.6602-2.0234l41.172-41.164 40.055 13.355v0.003907c3.1641 1.0508 6.6445-0.14063 8.4961-2.918l64.719-97.086z"/>
 </g>
</svg>
